<svg width="576" height="554" viewBox="0 0 576 554" fill="none" xmlns="http://www.w3.org/2000/svg">
<path opacity="0.07" d="M69.7346 279.912C69.7346 382.35 129.624 430.732 203.461 388.099C277.297 345.467 337.113 227.798 337.113 125.434C337.113 22.9967 277.223 -25.385 203.386 17.2476C129.55 59.8802 69.7346 177.475 69.7346 279.912Z" fill="url(#paint0_linear)"/>
<path opacity="0.4" d="M264.171 64.5092C281.698 54.355 299.076 49.1286 315.335 49.0539C331.519 48.9792 346.286 54.131 358.742 64.2105C371.197 74.29 381.042 88.9987 387.754 107.59C394.467 126.181 397.972 148.356 397.972 172.696L264.171 249.898V64.5092Z" fill="url(#paint1_linear)"/>
<path opacity="0.2" d="M368.064 147.012C368.064 183.671 360.233 224.064 345.54 263.038C330.847 302.012 309.964 337.851 285.576 365.999C261.187 394.147 234.263 413.335 208.308 421.175C182.354 429.014 158.562 425.132 139.842 409.975C121.122 394.819 108.442 369.134 103.222 336.208C98.0755 303.207 100.686 264.382 110.829 224.661C120.972 184.941 138.052 146.041 160.054 112.965C182.055 79.8895 207.861 54.0561 234.338 38.8248V224.288L368.064 147.012Z" fill="url(#paint2_linear)"/>
<path opacity="0.3" d="M330.4 128.197L552.358 0L552.283 115.728L349.941 232.65L330.326 261.694L330.4 128.197Z" fill="url(#paint3_linear)"/>
<path d="M576 45.0964V13.6632L492.244 62.1196V93.5527L576 45.0964Z" fill="url(#paint4_linear)"/>
<path opacity="0.15" d="M387.456 123.418L436.083 95.3449V105.499L387.456 133.572V123.418Z" fill="white"/>
<path opacity="0.15" d="M387.456 143.802L481.206 89.6708V99.825L387.456 153.956V143.802Z" fill="white"/>
<path opacity="0.15" d="M387.456 164.11L501.045 98.4809V108.635L387.456 174.339V164.11Z" fill="white"/>
<path d="M375.448 140.964C375.448 150.521 369.779 161.497 362.843 165.528C355.907 169.56 350.239 165.08 350.239 155.524C350.239 145.967 355.907 134.991 362.843 130.959C369.854 126.928 375.448 131.407 375.448 140.964Z" fill="url(#paint5_linear)"/>
<path opacity="0.3" d="M241.125 307.314L19.2424 435.585L19.1678 551.387L221.51 434.465L241.051 440.886L241.125 307.314Z" fill="url(#paint6_linear)"/>
<path d="M83.7561 455.968V424.535L0 472.991V504.424L83.7561 455.968Z" fill="url(#paint7_linear)"/>
<path opacity="0.15" d="M184.069 368.537L135.441 396.611V406.765L184.069 378.692V368.537Z" fill="white"/>
<path opacity="0.15" d="M184.069 388.845L96.2856 439.542V449.696L184.069 398.999V388.845Z" fill="white"/>
<path opacity="0.15" d="M184.069 409.229L70.4804 474.858V485.012L183.995 419.383L184.069 409.229Z" fill="white"/>
<path d="M196.002 372.196C196.002 381.753 201.671 386.233 208.607 382.201C215.543 378.169 221.211 367.194 221.211 357.637C221.211 348.08 215.543 343.6 208.607 347.632C201.671 351.664 196.002 362.639 196.002 372.196Z" fill="url(#paint8_linear)"/>
<path opacity="0.3" d="M397.226 249.972L272.226 322.171V554L397.226 481.801V249.972Z" fill="url(#paint9_linear)"/>
<path opacity="0.15" d="M384.92 387.577L284.532 445.59V455.744L384.92 397.731V387.577Z" fill="white"/>
<path opacity="0.15" d="M377.909 411.469L291.617 461.344V471.498L377.909 421.623V411.469Z" fill="white"/>
<path d="M341.438 452.906L428.401 402.658V428.566L341.438 478.814V452.906Z" fill="url(#paint10_linear)"/>
<path d="M320.481 341.136C320.481 352.335 326.969 357.636 334.95 353.007C342.93 348.303 349.419 335.461 349.419 324.187C349.419 312.988 342.93 307.687 334.95 312.316C326.969 317.02 320.481 329.936 320.481 341.136Z" fill="url(#paint11_linear)"/>
<path d="M335.024 362.042C347.927 354.501 358.592 361.594 360.457 377.796C360.755 380.633 358.667 384.366 356.056 385.859L313.992 410.498C311.381 411.991 309.293 410.797 309.591 407.586C311.456 389.07 322.121 369.583 335.024 362.042Z" fill="url(#paint12_linear)"/>
<path opacity="0.2" d="M466.811 231.007L498.733 212.566V201.814L466.811 220.256C464.201 221.749 460.397 224.81 457.19 229.514C453.685 234.517 451.224 240.863 451.224 247.732C451.224 255.348 453.163 259.678 456.817 260.873C460.248 261.993 464.35 260.051 466.811 258.633L479.938 251.017L480.012 250.943C481.131 250.271 482.921 249.599 484.338 250.047C485.531 250.42 486.799 251.54 486.799 255.796C486.799 260.051 485.457 262.59 484.413 264.158C483.07 266.099 481.28 267.443 480.161 268.04L480.012 268.115L439.887 291.335V302.087L479.789 279.016C482.548 277.597 486.501 274.536 489.932 269.758C493.661 264.457 496.197 257.812 496.197 250.42C496.197 243.028 493.661 239.295 490.006 238.25C486.576 237.279 482.623 238.698 479.863 240.34L466.886 247.881C465.021 249.001 463.604 249.449 462.635 249.151C461.889 248.927 460.546 247.881 460.546 242.431C460.546 238.847 461.665 236.533 462.784 235.039C464.126 233.023 465.767 231.605 466.811 231.007Z" fill="white"/>
<path d="M492.916 210.252C492.916 219.883 498.584 224.438 505.52 220.481C512.456 216.449 518.124 205.399 518.124 195.692C518.124 186.061 512.456 181.506 505.52 185.464C498.584 189.495 492.916 200.62 492.916 210.252Z" fill="url(#paint13_linear)"/>
<path d="M423.554 305.82C423.554 315.452 429.222 320.006 436.158 316.049C443.094 312.017 448.763 300.967 448.763 291.261C448.763 281.63 443.094 277.075 436.158 281.032C429.222 285.064 423.554 296.189 423.554 305.82Z" fill="url(#paint14_linear)"/>
<defs>
<linearGradient id="paint0_linear" x1="237.918" y1="-25.0121" x2="255.856" y2="351.288" gradientUnits="userSpaceOnUse">
<stop stop-color="#3F51B5"/>
<stop offset="1" stop-color="white" stop-opacity="0"/>
</linearGradient>
<linearGradient id="paint1_linear" x1="331.146" y1="-27.9986" x2="331.146" y2="203.457" gradientUnits="userSpaceOnUse">
<stop stop-color="#4179A7"/>
<stop offset="1" stop-color="#1A3144"/>
</linearGradient>
<linearGradient id="paint2_linear" x1="207.712" y1="49.2777" x2="195.135" y2="474.112" gradientUnits="userSpaceOnUse">
<stop stop-color="#4A85B6"/>
<stop offset="1" stop-color="#1A3144"/>
</linearGradient>
<linearGradient id="paint3_linear" x1="419.217" y1="7.08116" x2="412.264" y2="294.965" gradientUnits="userSpaceOnUse">
<stop stop-color="#4A85B6"/>
<stop offset="1" stop-color="#1A3144"/>
</linearGradient>
<linearGradient id="paint4_linear" x1="534.122" y1="13.6632" x2="534.122" y2="93.5527" gradientUnits="userSpaceOnUse">
<stop stop-color="#3F51B5"/>
<stop offset="1" stop-color="#23359D"/>
</linearGradient>
<linearGradient id="paint5_linear" x1="362.843" y1="129.478" x2="362.843" y2="167.01" gradientUnits="userSpaceOnUse">
<stop stop-color="#3F51B5"/>
<stop offset="1" stop-color="#23359D"/>
</linearGradient>
<linearGradient id="paint6_linear" x1="108.029" y1="313.918" x2="101.978" y2="582.438" gradientUnits="userSpaceOnUse">
<stop stop-color="#4A85B6"/>
<stop offset="1" stop-color="#1A3144"/>
</linearGradient>
<linearGradient id="paint7_linear" x1="41.878" y1="424.535" x2="41.878" y2="504.424" gradientUnits="userSpaceOnUse">
<stop stop-color="#3F51B5"/>
<stop offset="1" stop-color="#23359D"/>
</linearGradient>
<linearGradient id="paint8_linear" x1="208.607" y1="346.15" x2="208.607" y2="383.682" gradientUnits="userSpaceOnUse">
<stop stop-color="#3F51B5"/>
<stop offset="1" stop-color="#23359D"/>
</linearGradient>
<linearGradient id="paint9_linear" x1="322.27" y1="258.199" x2="305.631" y2="592.018" gradientUnits="userSpaceOnUse">
<stop stop-color="#4A85B6"/>
<stop offset="1" stop-color="#1A3144"/>
</linearGradient>
<linearGradient id="paint10_linear" x1="384.92" y1="402.658" x2="384.92" y2="478.814" gradientUnits="userSpaceOnUse">
<stop stop-color="#3F51B5"/>
<stop offset="1" stop-color="#23359D"/>
</linearGradient>
<linearGradient id="paint11_linear" x1="334.95" y1="310.642" x2="334.95" y2="354.681" gradientUnits="userSpaceOnUse">
<stop stop-color="#3F51B5"/>
<stop offset="1" stop-color="#23359D"/>
</linearGradient>
<linearGradient id="paint12_linear" x1="335.024" y1="359.025" x2="335.024" y2="411.136" gradientUnits="userSpaceOnUse">
<stop stop-color="#3F51B5"/>
<stop offset="1" stop-color="#23359D"/>
</linearGradient>
<linearGradient id="paint13_linear" x1="505.52" y1="184.037" x2="505.52" y2="221.907" gradientUnits="userSpaceOnUse">
<stop stop-color="#3F51B5"/>
<stop offset="1" stop-color="#23359D"/>
</linearGradient>
<linearGradient id="paint14_linear" x1="436.158" y1="279.606" x2="436.158" y2="317.476" gradientUnits="userSpaceOnUse">
<stop stop-color="#3F51B5"/>
<stop offset="1" stop-color="#23359D"/>
</linearGradient>
</defs>
</svg>
