<svg width="576" height="851" viewBox="0 0 576 851" fill="none" xmlns="http://www.w3.org/2000/svg">
<path opacity="0.3" d="M219.865 205.966C224.004 207.364 227.29 210.782 227.29 213.579V288.624L264.942 301.481V378.896C264.942 381.693 261.59 382.819 257.516 381.421C253.377 380.022 250.091 376.604 250.091 373.807V306.531L212.374 293.713V208.491C212.374 205.694 215.725 204.567 219.865 205.966Z" fill="url(#paint0_linear)"/>
<path opacity="0.3" d="M252.248 746.23C258.191 749.627 262.907 746.891 262.907 740.098V603.481L316.96 634.71V545.268C316.96 538.475 312.149 530.172 306.301 526.776C300.358 523.379 295.641 526.115 295.641 532.908V597.726L241.588 566.496V727.738C241.588 734.531 246.399 742.834 252.248 746.23Z" fill="url(#paint1_linear)"/>
<path opacity="0.3" d="M335.382 206.31C341.244 208.51 345.896 213.888 345.896 218.288V419.165C345.896 423.565 341.151 425.337 335.382 423.137C329.521 420.937 324.869 415.559 324.869 411.159V210.282C324.869 205.882 329.614 204.11 335.382 206.31Z" fill="url(#paint2_linear)"/>
<path d="M274.793 730.663C274.793 749.344 263.851 758.212 250.361 750.382C236.871 742.645 225.928 721.134 225.928 702.453C225.928 683.772 236.871 674.903 250.361 682.734C263.851 690.47 274.793 711.982 274.793 730.663Z" fill="url(#paint3_linear)"/>
<path opacity="0.3" d="M454.31 243.731C448.367 240.334 443.65 243.07 443.65 249.863V341.947L389.597 310.718V423.842C389.597 430.635 394.408 438.938 400.257 442.334C406.2 445.731 410.916 442.995 410.916 436.201V347.703L464.969 378.932V262.223C464.969 255.43 460.158 247.127 454.31 243.731Z" fill="url(#paint4_linear)"/>
<path d="M478.271 276.281C478.271 294.773 467.422 303.453 454.121 295.811C440.82 288.074 429.972 266.94 429.972 248.448C429.972 229.956 440.726 221.276 454.121 228.918C467.517 236.654 478.271 257.788 478.271 276.281Z" fill="url(#paint5_linear)"/>
<path opacity="0.3" d="M557.699 747.268C557.699 740.475 552.888 732.173 547.039 728.776L463.083 680.281V609.991L379.692 561.874C373.749 558.477 369.032 561.213 369.032 568.006C369.032 574.799 373.843 583.102 379.692 586.499L441.763 622.351V692.641L547.134 753.401C552.982 756.797 557.699 754.061 557.699 747.268Z" fill="url(#paint6_linear)"/>
<path opacity="0.3" d="M355.071 849.542C349.128 846.145 344.411 837.842 344.411 831.049V607.444C344.411 600.651 349.222 597.914 355.071 601.311C361.014 604.708 365.73 613.01 365.73 619.803V843.409C365.73 850.202 360.919 852.938 355.071 849.542Z" fill="url(#paint7_linear)"/>
<path d="M570.717 755.382C570.717 774.063 559.775 782.932 546.285 775.101C532.795 767.364 521.853 745.853 521.853 727.172C521.853 708.491 532.795 699.622 546.285 707.453C559.775 715.189 570.717 736.701 570.717 755.382Z" fill="url(#paint8_linear)"/>
<path opacity="0.3" d="M48.2045 380.064L201.779 468.752V753.307L48.2045 664.619V380.064Z" fill="url(#paint9_linear)"/>
<path opacity="0.15" d="M72.5422 561.024L164.046 613.859V625.087L72.5422 572.252V561.024V561.024Z" fill="white"/>
<path opacity="0.15" d="M82.0701 588.668L154.612 630.559V641.787L82.0701 599.896V588.668Z" fill="white"/>
<path d="M106.785 639.334L0 577.63V609.425L106.88 671.129L106.785 639.334Z" fill="url(#paint10_linear)"/>
<path opacity="0.2" d="M158.291 497.15L134.425 516.02L118.388 495.452L97.4464 513.567L89.145 507.528L119.992 481.583L135.651 502.151L152.914 489.319L158.291 497.15Z" fill="white"/>
<path d="M176.215 496.679C176.215 507.34 169.989 512.341 162.348 507.906C154.707 503.472 148.481 491.301 148.481 480.639C148.481 469.978 154.707 464.978 162.348 469.412C169.989 473.846 176.215 486.112 176.215 496.679Z" fill="url(#paint11_linear)"/>
<path d="M104.71 517.247C104.71 527.908 98.4841 532.908 90.8431 528.474C83.2021 524.04 76.9761 511.869 76.9761 501.207C76.9761 490.546 83.2021 485.545 90.8431 489.98C98.4841 494.414 104.71 506.585 104.71 517.247Z" fill="url(#paint12_linear)"/>
<path opacity="0.2" d="M576 566.119L429.972 481.772V557.817L576 642.164V566.119Z" fill="url(#paint13_linear)"/>
<path opacity="0.15" d="M467.327 521.775L511.287 547.155V556.307L467.327 530.833V521.775Z" fill="white"/>
<path opacity="0.15" d="M467.422 540.079L561.001 594.046V603.292L467.422 549.325V540.079Z" fill="white"/>
<path d="M459.687 524.417C459.687 530.644 456.008 533.663 451.385 531.021C446.763 528.38 443.084 521.115 443.084 514.888C443.084 508.661 446.763 505.642 451.385 508.283C456.008 510.925 459.687 518.19 459.687 524.417Z" fill="url(#paint14_linear)"/>
<path opacity="0.2" d="M201.308 333.55L55.2795 249.203V325.248L201.308 409.595V333.55Z" fill="url(#paint15_linear)"/>
<path opacity="0.15" d="M92.6355 289.207L136.595 314.586V323.738L92.6355 298.358V289.207Z" fill="white"/>
<path opacity="0.15" d="M92.73 307.51L186.309 361.477V370.723L92.73 316.756V307.51Z" fill="white"/>
<path d="M84.9944 291.848C84.9944 298.075 81.3154 301.094 76.6931 298.452C72.0707 295.811 68.3917 288.546 68.3917 282.319C68.3917 276.092 72.0707 273.073 76.6931 275.714C81.2211 278.356 84.9944 285.621 84.9944 291.848Z" fill="url(#paint16_linear)"/>
<path opacity="0.2" d="M394.219 498.849C394.219 545.079 367.145 566.968 333.846 547.721C300.452 528.474 273.472 475.356 273.472 429.125C273.472 382.894 300.546 361.006 333.846 380.253C367.24 399.5 394.219 452.618 394.219 498.849Z" fill="url(#paint17_linear)"/>
<path opacity="0.4" d="M310.074 475.922C311.677 475.45 312.526 473.752 312.526 470.827C312.526 467.808 311.677 465.166 310.074 462.996C308.376 460.826 305.923 458.751 302.716 456.958C301.678 456.392 300.546 455.731 299.32 455.165C298.093 454.505 297.056 453.939 296.112 453.561V469.789L302.055 473.186C305.829 475.356 308.47 476.205 310.074 475.922Z" fill="white"/>
<path opacity="0.4" d="M303.659 487.055L296.018 482.621V502.056C296.962 502.717 297.905 503.377 298.848 503.943C299.886 504.604 301.018 505.264 302.244 506.019C305.923 508.095 308.848 509.133 311.112 508.944C313.376 508.85 314.508 506.774 314.508 502.906C314.508 499.509 313.564 496.49 311.678 493.943C309.791 491.395 307.15 489.036 303.659 487.055Z" fill="white"/>
<path opacity="0.4" d="M305.734 399.122C272.34 379.875 245.361 401.764 245.361 447.995C245.361 494.225 272.435 547.344 305.734 566.591C339.128 585.838 366.108 563.949 366.108 517.718C366.108 471.487 339.034 418.369 305.734 399.122ZM320.639 524.606C317.432 525.832 312.998 525.172 307.338 522.624V533.946L295.735 527.247V516.02C294.886 515.548 294.131 514.982 293.282 514.416C290.358 512.435 287.339 510.076 284.132 507.34V434.314C286.585 435.069 289.32 436.201 292.339 437.616C293.471 438.088 294.603 438.654 295.735 439.22V427.993L307.338 434.692L307.244 446.202C308.187 446.957 309.13 447.617 309.979 448.372C312.904 450.731 315.451 453.373 317.526 456.203C319.601 459.034 321.205 462.241 322.337 465.638C323.563 469.034 324.129 472.714 324.129 476.677C324.129 482.715 322.054 486.3 317.903 487.338C321.394 491.112 323.752 494.886 324.978 498.754C326.205 502.528 326.865 506.491 326.865 510.359C326.865 518.284 324.79 523.002 320.639 524.606Z" fill="white"/>
<defs>
<linearGradient id="paint0_linear" x1="238.658" y1="205.365" x2="238.658" y2="382.021" gradientUnits="userSpaceOnUse">
<stop stop-color="#2C5A80"/>
<stop offset="1" stop-color="#132536"/>
</linearGradient>
<linearGradient id="paint1_linear" x1="279.274" y1="525.317" x2="279.274" y2="747.689" gradientUnits="userSpaceOnUse">
<stop stop-color="#2C5A80"/>
<stop offset="1" stop-color="#132536"/>
</linearGradient>
<linearGradient id="paint2_linear" x1="335.382" y1="205.365" x2="335.382" y2="424.082" gradientUnits="userSpaceOnUse">
<stop stop-color="#2C5A80"/>
<stop offset="1" stop-color="#132536"/>
</linearGradient>
<linearGradient id="paint3_linear" x1="250.361" y1="679.884" x2="250.361" y2="753.232" gradientUnits="userSpaceOnUse">
<stop stop-color="#3F51B5"/>
<stop offset="1" stop-color="#23359D"/>
</linearGradient>
<linearGradient id="paint4_linear" x1="427.283" y1="242.272" x2="427.283" y2="443.792" gradientUnits="userSpaceOnUse">
<stop stop-color="#2C5A80"/>
<stop offset="1" stop-color="#132536"/>
</linearGradient>
<linearGradient id="paint5_linear" x1="454.121" y1="226.144" x2="454.121" y2="298.584" gradientUnits="userSpaceOnUse">
<stop stop-color="#3F51B5"/>
<stop offset="1" stop-color="#23359D"/>
</linearGradient>
<linearGradient id="paint6_linear" x1="463.366" y1="560.415" x2="463.366" y2="754.859" gradientUnits="userSpaceOnUse">
<stop stop-color="#2C5A80"/>
<stop offset="1" stop-color="#132536"/>
</linearGradient>
<linearGradient id="paint7_linear" x1="355.071" y1="599.853" x2="355.071" y2="851" gradientUnits="userSpaceOnUse">
<stop stop-color="#2C5A80"/>
<stop offset="1" stop-color="#132536"/>
</linearGradient>
<linearGradient id="paint8_linear" x1="546.285" y1="704.603" x2="546.285" y2="777.951" gradientUnits="userSpaceOnUse">
<stop stop-color="#3F51B5"/>
<stop offset="1" stop-color="#23359D"/>
</linearGradient>
<linearGradient id="paint9_linear" x1="124.992" y1="380.064" x2="124.992" y2="753.307" gradientUnits="userSpaceOnUse">
<stop stop-color="#2C5A80"/>
<stop offset="1" stop-color="#132536"/>
</linearGradient>
<linearGradient id="paint10_linear" x1="53.4399" y1="577.63" x2="53.4399" y2="671.129" gradientUnits="userSpaceOnUse">
<stop stop-color="#3F51B5"/>
<stop offset="1" stop-color="#23359D"/>
</linearGradient>
<linearGradient id="paint11_linear" x1="162.348" y1="467.796" x2="162.348" y2="509.522" gradientUnits="userSpaceOnUse">
<stop stop-color="#3F51B5"/>
<stop offset="1" stop-color="#23359D"/>
</linearGradient>
<linearGradient id="paint12_linear" x1="90.8431" y1="488.364" x2="90.8431" y2="530.09" gradientUnits="userSpaceOnUse">
<stop stop-color="#3F51B5"/>
<stop offset="1" stop-color="#23359D"/>
</linearGradient>
<linearGradient id="paint13_linear" x1="502.986" y1="481.772" x2="502.986" y2="642.164" gradientUnits="userSpaceOnUse">
<stop stop-color="#2C5A80"/>
<stop offset="1" stop-color="#132536"/>
</linearGradient>
<linearGradient id="paint14_linear" x1="451.385" y1="507.325" x2="451.385" y2="531.98" gradientUnits="userSpaceOnUse">
<stop stop-color="#3F51B5"/>
<stop offset="1" stop-color="#23359D"/>
</linearGradient>
<linearGradient id="paint15_linear" x1="128.294" y1="249.203" x2="128.294" y2="409.595" gradientUnits="userSpaceOnUse">
<stop stop-color="#2C5A80"/>
<stop offset="1" stop-color="#132536"/>
</linearGradient>
<linearGradient id="paint16_linear" x1="76.6931" y1="274.756" x2="76.6931" y2="299.411" gradientUnits="userSpaceOnUse">
<stop stop-color="#3F51B5"/>
<stop offset="1" stop-color="#23359D"/>
</linearGradient>
<linearGradient id="paint17_linear" x1="345.974" y1="394.908" x2="318.661" y2="550.421" gradientUnits="userSpaceOnUse">
<stop stop-color="white"/>
<stop offset="1" stop-color="white" stop-opacity="0"/>
</linearGradient>
</defs>
</svg>
